<svg version="1.1" id="Layer_1" xmlns="http://www.w3.org/2000/svg" xmlns:xlink="http://www.w3.org/1999/xlink" x="0px" y="0px"
	 width="100%" viewBox="0 0 500 500" enable-background="new 0 0 500 500" xml:space="preserve">
<path fill="#FFFFFF" opacity="1.000000" stroke="none" 
	d="
M282.000000,501.000000 
	C188.000015,501.000000 94.500046,501.000000 1.000050,501.000000 
	C1.000033,334.333405 1.000033,167.666794 1.000017,1.000140 
	C167.666565,1.000093 334.333130,1.000093 500.999756,1.000046 
	C500.999847,167.666519 500.999847,334.333038 500.999939,500.999786 
	C428.166656,501.000000 355.333344,501.000000 282.000000,501.000000 
M218.500000,428.998657 
	C153.567810,428.998657 88.635612,428.998657 22.499315,428.998657 
	C23.247568,438.246063 22.948706,447.003357 24.821438,455.268585 
	C29.661449,476.629822 47.874924,489.802368 71.321167,489.808136 
	C191.135818,489.837677 310.950470,489.841217 430.765076,489.753113 
	C435.706696,489.749481 440.865601,489.470062 445.552765,488.074615 
	C472.348114,480.097229 482.530212,457.347809 478.271179,428.998657 
	C392.062317,428.998657 305.781158,428.998657 218.500000,428.998657 
M448.924561,378.499390 
	C448.923492,324.874634 448.774048,271.249237 449.002960,217.625458 
	C449.081512,199.223434 433.839264,185.000656 417.249908,185.767227 
	C402.792084,186.435303 388.278564,185.847595 373.790649,185.954193 
	C370.664917,185.977173 367.406342,186.136978 364.443634,187.020691 
	C350.672516,191.128357 342.187286,202.952942 342.170288,217.850143 
	C342.129242,253.821991 342.158844,289.793915 342.159576,325.765808 
	C342.160034,348.414764 342.242157,371.064331 342.081635,393.712158 
	C342.053741,397.652008 343.217957,399.097137 347.204071,398.855682 
	C352.015961,398.564209 356.859009,398.786865 361.688568,398.786865 
	C389.000549,398.786835 416.312988,398.713043 443.624115,398.865692 
	C447.749634,398.888733 449.286652,397.675812 448.997589,393.483063 
	C448.677612,388.842102 448.924438,384.162048 448.924561,378.499390 
M313.556396,116.056679 
	C293.018372,136.423126 272.480316,156.789566 251.323288,177.769836 
	C250.265610,176.241562 249.785736,175.327484 249.106628,174.599197 
	C230.826889,154.995392 212.607941,135.333862 194.194199,115.856537 
	C185.555634,106.718994 175.406311,107.683311 168.091324,117.907341 
	C164.218033,123.320984 160.319534,128.716599 156.436432,134.123260 
	C133.428070,166.159058 110.377457,198.164642 87.444427,230.254303 
	C81.831474,238.108383 83.103630,246.808838 90.175545,251.867020 
	C97.883118,257.379852 106.365128,255.797501 112.252769,247.629257 
	C129.185623,224.137527 146.072479,200.612625 162.987076,177.107727 
	C169.679504,167.807800 176.397491,158.526245 183.910843,148.118423 
	C185.313660,150.066254 186.235214,151.677734 187.464951,153.003265 
	C204.562332,171.432541 221.636444,189.884247 238.861511,208.193802 
	C246.369034,216.174026 255.143631,216.224335 262.880859,208.692627 
	C273.144196,198.701874 283.409088,188.712128 293.606079,178.653839 
	C323.850067,148.821213 354.058807,118.952866 384.294830,89.112190 
	C385.283325,88.136627 386.418549,87.309708 388.144165,85.860054 
	C388.144165,99.408371 388.013336,112.035255 388.188110,124.657913 
	C388.314056,133.757141 395.001068,140.643326 403.359650,140.770218 
	C411.583832,140.895065 418.772339,133.907440 418.834167,124.963303 
	C419.008026,99.805595 418.998932,74.645233 418.839905,49.487320 
	C418.781464,40.238857 412.077911,34.002384 402.830353,33.993248 
	C378.004700,33.968716 353.178955,33.971554 328.353271,33.991199 
	C319.237305,33.998417 312.962708,39.973476 312.892365,48.619946 
	C312.818146,57.738819 318.864105,63.969688 328.151947,64.063179 
	C339.314056,64.175537 350.478149,64.083885 361.641327,64.112236 
	C362.822662,64.115234 364.003510,64.330673 365.184570,64.447548 
	C364.764191,64.205589 364.343811,63.963623 363.923431,63.721661 
	C347.302032,81.000946 330.680664,98.280228 313.556396,116.056679 
M304.156677,297.500000 
	C304.155029,291.001160 304.185760,284.502075 304.145691,278.003479 
	C304.030579,259.328278 291.833282,246.952255 273.247009,246.813660 
	C258.583740,246.704330 243.908417,247.142395 229.257721,246.699829 
	C211.387863,246.159973 197.738922,261.175476 197.893906,278.302307 
	C198.237686,316.292419 198.000443,354.287811 198.000092,392.281036 
	C198.000076,394.063538 198.000092,395.846039 198.000092,397.799561 
	C233.641647,397.799561 268.666199,397.799561 304.157013,397.799561 
	C304.157013,364.424957 304.157013,331.462463 304.156677,297.500000 
M78.585625,307.874176 
	C65.019318,309.961670 54.077869,322.122284 53.931324,335.824097 
	C53.728279,354.809052 53.995697,373.799561 53.724670,392.782898 
	C53.660564,397.273041 55.008057,398.335938 59.349121,398.311401 
	C91.159912,398.131653 122.972176,398.218781 154.783981,398.201477 
	C156.380615,398.200592 157.977142,398.011414 159.833542,397.893433 
	C159.833542,376.157501 160.479034,354.846619 159.587692,333.600220 
	C159.066010,321.165436 147.517365,308.647400 133.768646,307.892212 
	C121.490318,307.217773 109.169510,307.222168 96.866051,307.141754 
	C91.061089,307.103790 85.252838,307.568695 78.585625,307.874176 
z"/>
<path fill="#DFC57C" opacity="1.000000" stroke="none" 
	d="
M219.000000,428.998657 
	C305.781158,428.998657 392.062317,428.998657 478.271179,428.998657 
	C482.530212,457.347809 472.348114,480.097229 445.552765,488.074615 
	C440.865601,489.470062 435.706696,489.749481 430.765076,489.753113 
	C310.950470,489.841217 191.135818,489.837677 71.321167,489.808136 
	C47.874924,489.802368 29.661449,476.629822 24.821438,455.268585 
	C22.948706,447.003357 23.247568,438.246063 22.499315,428.998657 
	C88.635612,428.998657 153.567810,428.998657 219.000000,428.998657 
z"/>
<path fill="#DFC57C" opacity="1.000000" stroke="none" 
	d="
M448.924500,378.999207 
	C448.924438,384.162048 448.677612,388.842102 448.997589,393.483063 
	C449.286652,397.675812 447.749634,398.888733 443.624115,398.865692 
	C416.312988,398.713043 389.000549,398.786835 361.688568,398.786865 
	C356.859009,398.786865 352.015961,398.564209 347.204071,398.855682 
	C343.217957,399.097137 342.053741,397.652008 342.081635,393.712158 
	C342.242157,371.064331 342.160034,348.414764 342.159576,325.765808 
	C342.158844,289.793915 342.129242,253.821991 342.170288,217.850143 
	C342.187286,202.952942 350.672516,191.128357 364.443634,187.020691 
	C367.406342,186.136978 370.664917,185.977173 373.790649,185.954193 
	C388.278564,185.847595 402.792084,186.435303 417.249908,185.767227 
	C433.839264,185.000656 449.081512,199.223434 449.002960,217.625458 
	C448.774048,271.249237 448.923492,324.874634 448.924500,378.999207 
z"/>
<path fill="#DFC57C" opacity="1.000000" stroke="none" 
	d="
M313.807831,115.808090 
	C330.680664,98.280228 347.302032,81.000946 363.923431,63.721661 
	C364.343811,63.963623 364.764191,64.205589 365.184570,64.447548 
	C364.003510,64.330673 362.822662,64.115234 361.641327,64.112236 
	C350.478149,64.083885 339.314056,64.175537 328.151947,64.063179 
	C318.864105,63.969688 312.818146,57.738819 312.892365,48.619946 
	C312.962708,39.973476 319.237305,33.998417 328.353271,33.991199 
	C353.178955,33.971554 378.004700,33.968716 402.830353,33.993248 
	C412.077911,34.002384 418.781464,40.238857 418.839905,49.487320 
	C418.998932,74.645233 419.008026,99.805595 418.834167,124.963303 
	C418.772339,133.907440 411.583832,140.895065 403.359650,140.770218 
	C395.001068,140.643326 388.314056,133.757141 388.188110,124.657913 
	C388.013336,112.035255 388.144165,99.408371 388.144165,85.860054 
	C386.418549,87.309708 385.283325,88.136627 384.294830,89.112190 
	C354.058807,118.952866 323.850067,148.821213 293.606079,178.653839 
	C283.409088,188.712128 273.144196,198.701874 262.880859,208.692627 
	C255.143631,216.224335 246.369034,216.174026 238.861511,208.193802 
	C221.636444,189.884247 204.562332,171.432541 187.464951,153.003265 
	C186.235214,151.677734 185.313660,150.066254 183.910843,148.118423 
	C176.397491,158.526245 169.679504,167.807800 162.987076,177.107727 
	C146.072479,200.612625 129.185623,224.137527 112.252769,247.629257 
	C106.365128,255.797501 97.883118,257.379852 90.175545,251.867020 
	C83.103630,246.808838 81.831474,238.108383 87.444427,230.254303 
	C110.377457,198.164642 133.428070,166.159058 156.436432,134.123260 
	C160.319534,128.716599 164.218033,123.320984 168.091324,117.907341 
	C175.406311,107.683311 185.555634,106.718994 194.194199,115.856537 
	C212.607941,135.333862 230.826889,154.995392 249.106628,174.599197 
	C249.785736,175.327484 250.265610,176.241562 251.323288,177.769836 
	C272.480316,156.789566 293.018372,136.423126 313.807831,115.808090 
z"/>
<path fill="#DFC57B" opacity="1.000000" stroke="none" 
	d="
M304.156860,298.000000 
	C304.157013,331.462463 304.157013,364.424957 304.157013,397.799561 
	C268.666199,397.799561 233.641647,397.799561 198.000092,397.799561 
	C198.000092,395.846039 198.000076,394.063538 198.000092,392.281036 
	C198.000443,354.287811 198.237686,316.292419 197.893906,278.302307 
	C197.738922,261.175476 211.387863,246.159973 229.257721,246.699829 
	C243.908417,247.142395 258.583740,246.704330 273.247009,246.813660 
	C291.833282,246.952255 304.030579,259.328278 304.145691,278.003479 
	C304.185760,284.502075 304.155029,291.001160 304.156860,298.000000 
z"/>
<path fill="#DFC57B" opacity="1.000000" stroke="none" 
	d="
M79.015854,307.839966 
	C85.252838,307.568695 91.061089,307.103790 96.866051,307.141754 
	C109.169510,307.222168 121.490318,307.217773 133.768646,307.892212 
	C147.517365,308.647400 159.066010,321.165436 159.587692,333.600220 
	C160.479034,354.846619 159.833542,376.157501 159.833542,397.893433 
	C157.977142,398.011414 156.380615,398.200592 154.783981,398.201477 
	C122.972176,398.218781 91.159912,398.131653 59.349121,398.311401 
	C55.008057,398.335938 53.660564,397.273041 53.724670,392.782898 
	C53.995697,373.799561 53.728279,354.809052 53.931324,335.824097 
	C54.077869,322.122284 65.019318,309.961670 79.015854,307.839966 
z"/>
</svg>